<?xml version="1.0" encoding="UTF-8"?>
<svg version="1.1" xmlns="http://www.w3.org/2000/svg" width="1412" height="496">
<path d="M0 0 C21.45 0 42.9 0 65 0 C65 29.7 65 59.4 65 90 C95.69 90 126.38 90 158 90 C158 60.3 158 30.6 158 0 C179.12 0 200.24 0 222 0 C222 81.51 222 163.02 222 247 C200.88 247 179.76 247 158 247 C158 211.36 158 175.72 158 139 C127.31 139 96.62 139 65 139 C65 174.64 65 210.28 65 247 C43.55 247 22.1 247 0 247 C0 165.49 0 83.98 0 0 Z " fill="#0C046A" transform="translate(28,138)"/>
<path d="M0 0 C0.75095947 -0.00394775 1.50191895 -0.00789551 2.27563477 -0.01196289 C15.79867115 -0.04469254 29.02932901 1.1027244 42.42553711 2.8894043 C54.65153375 4.5170515 65.8601546 4.39251296 78.08007812 3.0234375 C84.86169275 2.3111899 91.13584056 2.3125 98.0625 2.3125 C98.0625 87.4525 98.0625 172.5925 98.0625 260.3125 C77.9325 260.3125 57.8025 260.3125 37.0625 260.3125 C37.0625 189.0325 37.0625 117.7525 37.0625 44.3125 C6.36495287 40.54199876 6.36495287 40.54199876 -21.9375 50.3125 C-29.39547003 56.89988987 -30.01232519 63.13557707 -30.9375 73.3125 C-16.0875 73.3125 -1.2375 73.3125 14.0625 73.3125 C14.0625 87.1725 14.0625 101.0325 14.0625 115.3125 C-0.1275 115.3125 -14.3175 115.3125 -28.9375 115.3125 C-28.9375 163.1625 -28.9375 211.0125 -28.9375 260.3125 C-49.0675 260.3125 -69.1975 260.3125 -89.9375 260.3125 C-89.9375 212.4625 -89.9375 164.6125 -89.9375 115.3125 C-98.1875 115.3125 -106.4375 115.3125 -114.9375 115.3125 C-114.9375 101.4525 -114.9375 87.5925 -114.9375 73.3125 C-106.6875 73.3125 -98.4375 73.3125 -89.9375 73.3125 C-89.999375 71.146875 -90.06125 68.98125 -90.125 66.75 C-90.22023174 49.7315271 -85.53338412 33.76349898 -73.6875 21.25 C-53.72775391 2.96270517 -25.9272217 0.09968722 0 0 Z " fill="#0C046A" transform="translate(911.9375,124.6875)"/>
<path d="M0 0 C2.52955333 -0.00217212 5.05865896 -0.02034727 7.58813477 -0.03930664 C33.27173122 -0.12889622 64.18501306 2.08199935 83.49633789 21.18530273 C95.78990425 34.04459073 98.82055342 48.80613598 98.72338867 66.05859375 C98.72282353 67.43921399 98.72314313 68.81983482 98.72427368 70.20045471 C98.72484416 73.92299711 98.71313959 77.64540889 98.69912577 81.36792111 C98.68656725 85.26764836 98.68544389 89.16737907 98.68307495 93.06712341 C98.67687516 100.44045675 98.6604848 107.81373031 98.64037597 115.18703741 C98.61797008 123.58611054 98.60701178 131.98518662 98.5969851 140.38428223 C98.57611713 157.65132951 98.5394598 174.91829451 98.49633789 192.18530273 C78.69633789 192.18530273 58.89633789 192.18530273 38.49633789 192.18530273 C38.16633789 186.57530273 37.83633789 180.96530273 37.49633789 175.18530273 C35.33071289 176.85592773 33.16508789 178.52655273 30.93383789 180.24780273 C16.0144482 191.34321894 -0.82194375 197.49449964 -19.50366211 198.18530273 C-20.22295898 198.22526367 -20.94225586 198.26522461 -21.68334961 198.30639648 C-39.1533919 198.85033553 -55.63606094 193.40473691 -68.97631836 182.08764648 C-78.37501599 173.19104956 -85.76721825 160.78907849 -86.68066406 147.63671875 C-87.13847435 127.48394629 -85.66982445 111.99593681 -71.44116211 96.49780273 C-44.63970715 71.06144735 4.69588384 68.75960911 39.49633789 69.18530273 C37.6913785 61.5005514 36.16967664 55.17522962 29.80883789 49.99780273 C10.99913367 39.70570042 -15.89563545 40.53786603 -36.00268555 46.41381836 C-42.33512707 48.36720719 -48.64834471 50.39039247 -54.91601562 52.54272461 C-56.43473267 53.05416016 -56.43473267 53.05416016 -57.98413086 53.57592773 C-58.880271 53.885625 -59.77641113 54.19532227 -60.69970703 54.5144043 C-63.50366211 55.18530273 -63.50366211 55.18530273 -70.50366211 55.18530273 C-70.50366211 40.00530273 -70.50366211 24.82530273 -70.50366211 9.18530273 C-56.98711479 5.8061659 -56.98711479 5.8061659 -50.93725586 4.83374023 C-50.29224625 4.72937653 -49.64723663 4.62501282 -48.98268127 4.51748657 C-47.64152476 4.30171028 -46.29996397 4.08843155 -44.95800781 3.87768555 C-42.93887052 3.55994212 -40.9214593 3.23258714 -38.90405273 2.90405273 C-25.85228786 0.80203071 -13.19733175 -0.0012623 0 0 Z M18.75512695 106.72949219 C16.76638382 106.99512523 14.77588579 107.24750993 12.78540039 107.49975586 C-6.92916844 109.94589198 -6.92916844 109.94589198 -22.31616211 121.41186523 C-26.16245878 127.15600565 -26.10823202 133.49602919 -25.50366211 140.18530273 C-23.79204369 146.32699235 -20.61781886 149.6473495 -15.50366211 153.18530273 C-5.78437068 158.16347639 8.01085431 157.52897982 18.30883789 154.56030273 C25.30919604 152.11061327 33.60723739 149.01814034 38.49633789 143.18530273 C38.75801468 140.24345532 38.8450771 137.51793063 38.78930664 134.57983398 C38.7850618 133.74062912 38.78081696 132.90142426 38.77644348 132.03678894 C38.75965253 129.35680029 38.72200019 126.67756403 38.68383789 123.99780273 C38.66879156 122.1807563 38.65510307 120.36369809 38.64282227 118.54663086 C38.60974771 114.09256498 38.55796302 109.63906141 38.49633789 105.18530273 C31.79800681 105.08040836 25.38329241 105.83823545 18.75512695 106.72949219 Z " fill="#0C046A" transform="translate(381.503662109375,192.814697265625)"/>
<path d="M0 0 C20.79 0 41.58 0 63 0 C69.09741368 16.38220784 75.1826664 32.76841928 81.22265625 49.171875 C81.90421028 51.02281517 81.90421028 51.02281517 82.59953308 52.91114807 C84.86744097 59.07104272 87.1339182 65.23146196 89.39916992 71.39233398 C94.87692055 86.28274211 100.40800777 101.1521058 106 116 C107.85178014 113.22232978 108.80112874 111.03660592 109.88500977 107.91333008 C110.25101288 106.86558411 110.61701599 105.81783813 110.99411011 104.73834229 C111.38921783 103.59363464 111.78432556 102.448927 112.19140625 101.26953125 C112.83180329 99.43149152 113.4722023 97.59345247 114.11268234 95.75544167 C114.79570933 93.7928325 115.47668318 91.82952184 116.15707397 89.86599731 C117.56558075 85.80163022 118.9799083 81.73930652 120.39575195 77.67749023 C120.75018073 76.66066209 120.75018073 76.66066209 121.11176968 75.62329197 C121.59138168 74.24738762 122.0710173 72.87149151 122.55067635 71.49560356 C123.27662441 69.41273119 124.00205908 67.32968056 124.72740173 65.24659729 C128.97735604 53.04470703 133.26834648 40.85757158 137.58346558 28.67855835 C138.31668275 26.60910523 139.04937323 24.53946542 139.78152466 22.46963501 C140.79461652 19.60565356 141.80913038 16.74218059 142.82421875 13.87890625 C143.11910187 13.04518494 143.41398499 12.21146362 143.71780396 11.35247803 C143.99099457 10.58333069 144.26418518 9.81418335 144.5456543 9.02172852 C144.77987595 8.36108902 145.0140976 7.70044952 145.25541687 7.01979065 C146.12443538 4.66245084 147.06691138 2.33272154 148 0 C168.79 0 189.58 0 211 0 C204.08702044 18.43461216 204.08702044 18.43461216 200.7421875 26.77734375 C200.36171265 27.72985016 199.98123779 28.68235657 199.5892334 29.66372681 C198.35316786 32.75579412 197.11426475 35.84671364 195.875 38.9375 C195.22256317 40.56726273 195.22256317 40.56726273 194.5569458 42.22994995 C187.83407363 59.02129536 181.02461231 75.77593407 174.16619873 92.51229858 C168.85012027 105.4903147 163.58792743 118.48886569 158.3828125 131.51171875 C158.09807446 132.22407244 157.81333641 132.93642612 157.51996994 133.67036629 C154.70033977 140.72595863 151.88442508 147.7830229 149.07422066 154.8423748 C143.2657871 169.43084725 137.38340861 183.9831431 131.3583374 198.48362732 C126.41069368 210.3952546 121.57227652 222.34968022 116.75 234.3125 C113.8625 241.469375 110.975 248.62625 108 256 C86.22 256 64.44 256 42 256 C42.71953867 252.40230665 43.34204201 249.86519836 44.73071289 246.60302734 C45.08521011 245.7637973 45.43970734 244.92456726 45.8049469 244.05990601 C46.19029099 243.1609964 46.57563507 242.26208679 46.97265625 241.3359375 C47.37399277 240.38925201 47.77532928 239.44256653 48.18882751 238.4671936 C49.47562459 235.43455902 50.76890105 232.40473855 52.0625 229.375 C52.90603908 227.39081205 53.74914223 225.40643871 54.59179688 223.421875 C55.00642181 222.44631653 55.42104675 221.47075806 55.84823608 220.46563721 C56.67977727 218.50748071 57.51004319 216.54878216 58.33901978 214.58953857 C60.33491194 209.8793656 62.35515364 205.1838385 64.44091797 200.51269531 C64.81977646 199.65092682 65.19863495 198.78915833 65.588974 197.90127563 C66.29667069 196.29323549 67.01594701 194.69022019 67.7490387 193.09359741 C70.68008756 186.37436356 69.62792258 182.24945355 67.00814819 175.42066956 C66.73604523 174.72884079 66.46394226 174.03701202 66.18359375 173.32421875 C65.8958609 172.57925644 65.60812805 171.83429413 65.31167603 171.0667572 C64.35913454 168.60482548 63.39838807 166.14618478 62.4375 163.6875 C61.75987171 161.94142333 61.08271582 160.19516326 60.40600586 158.44873047 C58.63060554 153.87158865 56.84793819 149.29731539 55.06286621 144.72393799 C54.03449645 142.08840831 53.00764643 139.45229273 51.98144531 136.81591797 C48.33711187 127.45370744 44.6843809 118.09480586 41.0254364 108.73829651 C37.67807294 100.17832294 34.33686349 91.6159529 30.99624634 83.05334473 C30.0050845 80.5130314 29.0136923 77.97280811 28.0222168 75.43261719 C24.92788979 67.5047181 21.83449321 59.57645924 18.74407959 51.64703369 C17.30156165 47.94595583 15.85856155 44.24506605 14.41552734 40.54418945 C13.73494928 38.79835182 13.05460132 37.05242446 12.37451172 35.30639648 C11.73373033 33.6613166 11.09264458 32.01635523 10.45123291 30.371521 C9.84061719 28.80559555 9.23069439 27.2393997 8.621521 25.6729126 C7.18146499 21.97978077 5.71961506 18.29827267 4.20800781 14.63378906 C3.92631744 13.94672882 3.64462708 13.25966858 3.35440063 12.55178833 C2.59307958 10.70158754 1.8234645 8.85480564 1.05322266 7.00830078 C0 4 0 4 0 0 Z " fill="#0C046A" transform="translate(1042,198)"/>
<path d="M0 0 C20.13 0 40.26 0 61 0 C61.495 12.375 61.495 12.375 62 25 C63.876875 23.515 65.75375 22.03 67.6875 20.5 C89.8133964 3.44833891 106.57238762 0 135 0 C135 19.14 135 38.28 135 58 C126.05630027 58 126.05630027 58 122.6171875 57.52734375 C102.9418316 55.05312256 85.03218227 56.19537871 65.91918945 61.55688477 C64 62 64 62 61 62 C61 103.25 61 144.5 61 187 C40.87 187 20.74 187 0 187 C0 125.29 0 63.58 0 0 Z " fill="#0C046A" transform="translate(534,198)"/>
<path d="M0 0 C20.13 0 40.26 0 61 0 C61 61.71 61 123.42 61 187 C40.87 187 20.74 187 0 187 C0 125.29 0 63.58 0 0 Z " fill="#0C046A" transform="translate(702,198)"/>
<path d="M0 0 C69.63 0 139.26 0 211 0 C211 6.6 211 13.2 211 20 C141.37 20 71.74 20 0 20 C0 13.4 0 6.8 0 0 Z " fill="#EC6D00" transform="translate(1041,168)"/>
<path d="M0 0 C6.06375 -0.04125 12.1275 -0.0825 18.375 -0.125 C20.26782715 -0.14320801 22.1606543 -0.16141602 24.11083984 -0.18017578 C47.32451362 -0.31305434 47.32451362 -0.31305434 56 7 C60.80612153 13.03846039 61.68155328 18.46573834 61 26 C59.70805843 31.69675023 57.41543385 35.11021304 53 39 C51.3272127 40.66052347 49.65971362 42.32640917 48 44 C48.53367187 44.64324219 49.06734375 45.28648438 49.6171875 45.94921875 C57.09789103 55.0218367 64.56363584 64.1466187 71 74 C50.22395643 77.02219244 50.22395643 77.02219244 43.50634766 72.21582031 C39.27136908 67.72900091 36.17253465 62.58910518 33.23974609 57.18603516 C31.75220209 54.56305978 29.90465267 52.32991953 28 50 C28 49.34 28 48.68 28 48 C25.03 48 22.06 48 19 48 C19 56.58 19 65.16 19 74 C12.73 74 6.46 74 0 74 C0 49.58 0 25.16 0 0 Z M19 15 C19 20.94 19 26.88 19 33 C21.371875 33.0825 23.74375 33.165 26.1875 33.25 C27.29387817 33.30462402 27.29387817 33.30462402 28.42260742 33.36035156 C32.02641563 33.42069892 33.87966133 33.07776224 36.92578125 31.109375 C39.63919809 28.34996805 39.96001599 27.53978419 40.25 23.625 C39.99015512 19.85724926 39.67186361 18.5729057 37 16 C33.37918537 14.79306179 30.0749281 14.89217921 26.3125 14.9375 C23.899375 14.958125 21.48625 14.97875 19 15 Z " fill="#363435" transform="translate(1296,70)"/>
<path d="M0 0 C1.8735657 1.49686995 3.73016215 3.01543631 5.5625 4.5625 C6.21734375 5.10390625 6.8721875 5.6453125 7.546875 6.203125 C21.21976024 18.6216171 27.34868468 36.9895077 28.74609375 54.91796875 C29.32984406 73.76967009 22.16868059 91.21820595 10.14453125 105.41796875 C-2.90403763 119.13037579 -20.39181002 127.29744935 -39.31176758 127.96728516 C-60.32191686 128.24918763 -78.27692158 121.13816382 -93.546875 106.546875 C-108.47725917 90.92205436 -112.90360046 72.186539 -112.640625 51.2421875 C-112.16443923 33.37360683 -103.17465553 16.86573316 -90.4375 4.5625 C-65.07069764 -17.4971691 -27.40238929 -20.03138545 0 0 Z M-90.1875 15.125 C-101.80777572 28.7101587 -106.75137699 45.78384554 -105.64453125 63.43408203 C-103.87700754 81.60539304 -94.26474828 96.171715 -80.6875 107.8125 C-67.83337505 117.63162322 -51.52989915 122.19932689 -35.4375 120.5625 C-19.08676537 117.94555562 -6.99575558 111.24133351 4.5625 99.5625 C5.47322266 98.68464844 5.47322266 98.68464844 6.40234375 97.7890625 C17.50723772 86.18341735 21.08049383 69.95908071 20.98242188 54.47460938 C20.49423143 36.91227104 13.0760616 22.76683026 0.5625 10.5625 C-11.37517203 -0.59792794 -25.7063425 -5.91118399 -41.93359375 -6.58203125 C-61.036846 -5.79404872 -76.79142434 1.4761682 -90.1875 15.125 Z " fill="#343333" transform="translate(1366.4375,49.4375)"/>
<path d="M0 0 C21.12 0 42.24 0 64 0 C64 15.51 64 31.02 64 47 C42.88 47 21.76 47 0 47 C0 31.49 0 15.98 0 0 Z " fill="#0C0469" transform="translate(700,126)"/>
<path d="M0 0 C69.63 0 139.26 0 211 0 C211 6.6 211 13.2 211 20 C141.37 20 71.74 20 0 20 C0 13.4 0 6.8 0 0 Z M5 4 C5 8.95 5 13.9 5 19 C72.65 19 140.3 19 210 19 C210 14.05 210 9.1 210 4 C206.39838904 2.79946301 203.12094298 2.8616573 199.37277222 2.87301636 C198.58843343 2.87145637 197.80409464 2.86989638 196.99598801 2.86828911 C194.35912282 2.86429011 191.72231487 2.8674646 189.08544922 2.87060547 C187.19815538 2.86925088 185.3108618 2.86747062 183.42356873 2.86529541 C178.28900174 2.86072612 173.15445479 2.86250907 168.01988745 2.8656745 C162.64689422 2.86820291 157.27390272 2.865859 151.90090942 2.86428833 C142.87045992 2.86246711 133.84001858 2.86487073 124.80957031 2.86962891 C114.37881242 2.87506156 103.94807411 2.87331594 93.5173167 2.8678025 C84.5609247 2.86325824 75.60453858 2.86262756 66.64814579 2.86524117 C61.29965655 2.86679798 55.95117649 2.86701423 50.60268784 2.86370468 C45.56797182 2.86080726 40.5332809 2.86283602 35.49856758 2.86859894 C33.65435515 2.86991693 31.8101406 2.86954879 29.96592903 2.86733627 C27.4403011 2.86458663 24.91475257 2.86805232 22.38912964 2.87301636 C21.66643855 2.87078564 20.94374746 2.86855491 20.19915664 2.86625659 C15.07078928 2.8856845 10.09013234 3.37000241 5 4 Z " fill="#DD7112" transform="translate(1041,168)"/>
<path d="M0 0 C69.63 0 139.26 0 211 0 C211 6.6 211 13.2 211 20 C141.37 20 71.74 20 0 20 C0 13.4 0 6.8 0 0 Z M2 4 C2 8.95 2 13.9 2 19 C70.64 19 139.28 19 210 19 C210 13.06 210 7.12 210 1 C183.32314802 0.93062258 156.64631769 0.87705181 129.96939373 0.84456348 C117.58348715 0.82907922 105.19763758 0.80795993 92.81176758 0.77368164 C82.01918511 0.743827 71.22664391 0.72443635 60.43402129 0.71773452 C54.71674703 0.71381558 48.99959086 0.70457322 43.28235435 0.68280983 C37.90539839 0.66250683 32.52860961 0.65615364 27.15161896 0.66067696 C25.17426204 0.65984898 23.19689975 0.65384665 21.21957588 0.64238358 C18.52729471 0.62753621 15.83565115 0.63101785 13.14335632 0.63923645 C12.35445045 0.63049793 11.56554457 0.6217594 10.75273246 0.61275607 C6.27904075 0.64986641 5.31585107 0.68414893 2 4 Z " fill="#CD7529" transform="translate(1041,168)"/>
<path d="M0 0 C1.65 0 3.3 0 5 0 C6.07993241 3.23979724 6.1231403 5.57130735 6.12025452 8.97941589 C6.12162918 10.22883469 6.12300385 11.47825348 6.12442017 12.76553345 C6.12088103 14.15252709 6.11724622 15.5395205 6.11352539 16.92651367 C6.11324336 18.38506569 6.11340157 19.84361786 6.1139679 21.3021698 C6.11425525 25.26468809 6.10836853 29.22717622 6.10139394 33.18968749 C6.09515008 37.32968859 6.09455578 41.46969035 6.09336853 45.60969543 C6.09025827 53.45069737 6.08204897 61.29168539 6.07201904 69.13268119 C6.06084846 78.05881844 6.05534507 86.98495634 6.05032361 95.91109884 C6.03986612 114.27407379 6.02227255 132.63703577 6 151 C5.67 151 5.34 151 5 151 C5 103.15 5 55.3 5 6 C-3.25 6 -11.5 6 -20 6 C-20 5.67 -20 5.34 -20 5 C-13.73 5 -7.46 5 -1 5 C-0.67 3.35 -0.34 1.7 0 0 Z " fill="#0F0652" transform="translate(817,234)"/>
<path d="M0 0 C2.70334725 4.86602505 3.12519309 9.40969996 3.12025452 14.91621399 C3.12162918 16.10106888 3.12300385 17.28592377 3.12442017 18.50668335 C3.12082489 19.79781036 3.11722961 21.08893738 3.11352539 22.41918945 C3.11324317 23.79921975 3.11340194 25.17925019 3.1139679 26.5592804 C3.1142545 30.29854768 3.10837978 34.03778281 3.10139394 37.77704263 C3.09513774 41.68747561 3.09455481 45.59790935 3.09336853 49.50834656 C3.0902619 56.91012431 3.08205751 64.31188727 3.07201904 71.71365851 C3.06083716 80.14166527 3.05534222 88.56967274 3.05032361 96.99768507 C3.03987435 114.3317986 3.02228784 131.66589774 3 149 C1.68 148.67 0.36 148.34 -1 148 C-0.01 148 0.98 148 2 148 C2 105.76 2 63.52 2 20 C1.01 20 0.02 20 -1 20 C-1.22224251 17.41718164 -1.42823488 14.83477813 -1.625 12.25 C-1.72167969 11.15558594 -1.72167969 11.15558594 -1.8203125 10.0390625 C-2.10381649 6.14088264 -2.27081383 3.29354678 0 0 Z " fill="#0E0752" transform="translate(477,236)"/>
<path d="M0 0 C14.52 0 29.04 0 44 0 C44 13.86 44 27.72 44 42 C30.14 42 16.28 42 2 42 C2 40.35 2 38.7 2 37 C5.96 37 9.92 37 14 37 C14 38.32 14 39.64 14 41 C23.57 41 33.14 41 43 41 C43 27.8 43 14.6 43 1 C28.81 1 14.62 1 0 1 C0 0.67 0 0.34 0 0 Z " fill="#0E0750" transform="translate(882,198)"/>
<path d="M0 0 C20.79 0 41.58 0 63 0 C62.34 1.32 61.68 2.64 61 4 C61 3.34 61 2.68 61 2 C53.35900248 2.08435778 45.71819688 2.17922328 38.07750225 2.28752708 C34.52965396 2.3374857 30.98183537 2.38381555 27.43383789 2.421875 C23.35543986 2.46578269 19.27740455 2.5254323 15.19921875 2.5859375 C13.92414963 2.59748871 12.64908051 2.60903992 11.33537292 2.62094116 C10.15437515 2.64081085 8.97337738 2.66068054 7.7565918 2.68115234 C6.71512497 2.69447601 5.67365814 2.70779968 4.60063171 2.7215271 C1.7651949 2.82217776 1.7651949 2.82217776 -1 5 C-0.67 3.35 -0.34 1.7 0 0 Z " fill="#0D0556" transform="translate(1190,198)"/>
<path d="M0 0 C1.98 0 3.96 0 6 0 C5.34 1.98 4.68 3.96 4 6 C-17.78 6 -39.56 6 -62 6 C-61.67 5.01 -61.34 4.02 -61 3 C-61 3.66 -61 4.32 -61 5 C-40.87 5 -20.74 5 0 5 C0 3.35 0 1.7 0 0 Z " fill="#0E0757" transform="translate(1146,448)"/>
<path d="M0 0 C-0.33 0.66 -0.66 1.32 -1 2 C-1.86165771 2.02187378 -1.86165771 2.02187378 -2.74072266 2.04418945 C-5.36945696 2.11913725 -7.99698552 2.21563994 -10.625 2.3125 C-11.98044922 2.34633789 -11.98044922 2.34633789 -13.36328125 2.38085938 C-18.76066994 2.59754286 -22.17245204 3.43645361 -27 6 C-29.82421875 6.07421875 -29.82421875 6.07421875 -32.6875 5.6875 C-38.49342037 5.01898351 -44.16127767 4.89655807 -50 5 C-50 4.67 -50 4.34 -50 4 C-45.60452976 3.51746516 -41.2085622 3.03960922 -36.8125 2.5625 C-35.58595703 2.42779297 -34.35941406 2.29308594 -33.09570312 2.15429688 C-22.0718099 0.9617385 -11.09802796 -0.18810217 0 0 Z " fill="#0D0557" transform="translate(421,262)"/>
<path d="M0 0 C-0.33 0.66 -0.66 1.32 -1 2 C-2.65 2 -4.3 2 -6 2 C-6 15.86 -6 29.72 -6 44 C-2.04 44 1.92 44 6 44 C1.05829228 47.29447181 -0.58787039 47 -7 47 C-7 31.82 -7 16.64 -7 1 C-4.53721199 -0.231394 -2.7204945 -0.07159196 0 0 Z " fill="#0E055B" transform="translate(318,201)"/>
<path d="M0 0 C1.04542969 -0.03738281 2.09085938 -0.07476562 3.16796875 -0.11328125 C5.8125 0.3125 5.8125 0.3125 7.67578125 2.33203125 C8.05089844 2.98558594 8.42601562 3.63914063 8.8125 4.3125 C-12.19667431 3.36142966 -12.19667431 3.36142966 -21.1875 2.3125 C-21.1875 1.9825 -21.1875 1.6525 -21.1875 1.3125 C-14.13500104 0.72038614 -7.07485315 0.21511378 0 0 Z " fill="#0E0757" transform="translate(937.1875,163.6875)"/>
<path d="M0 0 C1.5778125 0.433125 1.5778125 0.433125 3.1875 0.875 C9.33349128 2.53790075 15.6698523 2.66215504 22 3 C22 3.33 22 3.66 22 4 C21.17761841 4.07516846 21.17761841 4.07516846 20.33862305 4.15185547 C5.58742115 5.48757241 5.58742115 5.48757241 -9 8 C-9 7.34 -9 6.68 -9 6 C-7.02 6 -5.04 6 -3 6 C-2.690625 5.195625 -2.38125 4.39125 -2.0625 3.5625 C-1 1 -1 1 0 0 Z " fill="#0C0651" transform="translate(611,250)"/>
<path d="M0 0 C8.68517024 0.50645534 17.35209459 1.02295299 26 2 C26 2.33 26 2.66 26 3 C18.08 3.495 18.08 3.495 10 4 C10 3.34 10 2.68 10 2 C9.01 2.66 8.02 3.32 7 4 C4.66800612 4.07905064 2.33167378 4.08798769 0 4 C0 2.68 0 1.36 0 0 Z " fill="#0E0851" transform="translate(950,128)"/>
<path d="M0 0 C0 0.66 0 1.32 0 2 C1.32 2.33 2.64 2.66 4 3 C0.7 3.66 -2.6 4.32 -6 5 C-6 3.35 -6 1.7 -6 0 C-2.25 -1.125 -2.25 -1.125 0 0 Z " fill="#0E0852" transform="translate(346,235)"/>
<path d="M0 0 C0 0.66 0 1.32 0 2 C1.32 2.33 2.64 2.66 4 3 C-0.62 3.33 -5.24 3.66 -10 4 C-10 3.34 -10 2.68 -10 2 C-6.5980513 -0.09350689 -3.94727588 -0.17942163 0 0 Z " fill="#0D0657" transform="translate(912,164)"/>
<path d="M0 0 C0 0.66 0 1.32 0 2 C1.98 2 3.96 2 6 2 C6 2.33 6 2.66 6 3 C4.4176994 3.33820166 2.83410625 3.67035939 1.25 4 C-0.07257813 4.2784375 -0.07257813 4.2784375 -1.421875 4.5625 C-4 5 -4 5 -8 5 C-8 4.34 -8 3.68 -8 3 C-6.68 3 -5.36 3 -4 3 C-4 2.34 -4 1.68 -4 1 C-2 0 -2 0 0 0 Z " fill="#0D0750" transform="translate(382,299)"/>
<path d="M0 0 C0 0.99 0 1.98 0 3 C-1.0725 3.28875 -2.145 3.5775 -3.25 3.875 C-6.09400364 4.72820109 -8.43508983 5.5636503 -11 7 C-11 6.34 -11 5.68 -11 5 C-11.66 4.67 -12.32 4.34 -13 4 C-8.71 2.68 -4.42 1.36 0 0 Z " fill="#0D0651" transform="translate(353,269)"/>
<path d="M0 0 C1.32 0.33 2.64 0.66 4 1 C3.34 1.66 2.68 2.32 2 3 C1.6936141 5.73434962 1.4886664 8.38279821 1.375 11.125 C1.33632812 11.87910156 1.29765625 12.63320312 1.2578125 13.41015625 C1.16348969 15.27303184 1.08065338 17.13648255 1 19 C1.99 19.33 2.98 19.66 4 20 C2.68 20 1.36 20 0 20 C0 13.4 0 6.8 0 0 Z " fill="#BE793B" transform="translate(1041,168)"/>
<path d="M0 0 C3.3 0 6.6 0 10 0 C9.67 1.65 9.34 3.3 9 5 C6.525 4.01 6.525 4.01 4 3 C4 2.34 4 1.68 4 1 C2.68 0.67 1.36 0.34 0 0 Z " fill="#0D084E" transform="translate(988,128)"/>
<path d="M0 0 C1.32 0 2.64 0 4 0 C4 3.3 4 6.6 4 10 C1.7448078 7.7448078 1.02276532 5.9952413 0 3 C0 2.01 0 1.02 0 0 Z " fill="#0E094C" transform="translate(1104,358)"/>
<path d="M0 0 C1.32 0.66 2.64 1.32 4 2 C4 2.66 4 3.32 4 4 C5.32 4.66 6.64 5.32 8 6 C6 7 6 7 3.8359375 6.44140625 C3.02382813 6.15136719 2.21171875 5.86132812 1.375 5.5625 C0.55773437 5.27503906 -0.25953125 4.98757812 -1.1015625 4.69140625 C-1.72804688 4.46324219 -2.35453125 4.23507813 -3 4 C-2.01 3.67 -1.02 3.34 0 3 C0 2.01 0 1.02 0 0 Z " fill="#0E0755" transform="translate(402,234)"/>
<path d="M0 0 C4.95 0.33 9.9 0.66 15 1 C15 1.33 15 1.66 15 2 C14.31292969 2.06058594 13.62585938 2.12117187 12.91796875 2.18359375 C11.56638672 2.30927734 11.56638672 2.30927734 10.1875 2.4375 C9.29417969 2.51871094 8.40085937 2.59992188 7.48046875 2.68359375 C4.87256441 2.93489767 4.87256441 2.93489767 2 4 C1.34 3.67 0.68 3.34 0 3 C0 2.01 0 1.02 0 0 Z " fill="#0F0753" transform="translate(400,193)"/>
<path d="M0 0 C1.88343932 3.76687864 2.22057835 5.02958963 2 9 C0.35 9.33 -1.3 9.66 -3 10 C-2.01 6.7 -1.02 3.4 0 0 Z " fill="#0C0753" transform="translate(1162,277)"/>
<path d="M0 0 C0.33 0.99 0.66 1.98 1 3 C1.99 3 2.98 3 4 3 C3.67 3.99 3.34 4.98 3 6 C0.4375 7.1875 0.4375 7.1875 -2 8 C-1.125 2.25 -1.125 2.25 0 0 Z " fill="#0D0758" transform="translate(1186,209)"/>
<path d="M0 0 C0 0.99 0 1.98 0 3 C-2.62596061 4.84526962 -4.95127546 5.98375849 -8 7 C-8.99 6.34 -9.98 5.68 -11 5 C-7.37 3.35 -3.74 1.7 0 0 Z " fill="#0B0455" transform="translate(412,341)"/>
<path d="M0 0 C1.65 0.99 3.3 1.98 5 3 C4.67 5.31 4.34 7.62 4 10 C1.7448078 7.7448078 1.02276532 5.9952413 0 3 C0 2.01 0 1.02 0 0 Z " fill="#0C0655" transform="translate(1095,335)"/>
<path d="M0 0 C1.32 0 2.64 0 4 0 C3.45276317 3.37462715 2.9451 5.08235 1 8 C-0.35439668 5.29120665 -0.06501451 2.99066732 0 0 Z " fill="#0E0753" transform="translate(1204,308)"/>
<path d="M0 0 C0.99 0 1.98 0 3 0 C2.45276317 3.37462715 1.9451 5.08235 0 8 C0 7.34 0 6.68 0 6 C-0.99 5.67 -1.98 5.34 -3 5 C-1.6875 2.5 -1.6875 2.5 0 0 Z " fill="#0F0752" transform="translate(1213,288)"/>
<path d="M0 0 C4.92307692 4.30769231 4.92307692 4.30769231 5.3125 7.8125 C5.209375 8.534375 5.10625 9.25625 5 10 C4.01 10.495 4.01 10.495 3 11 C2.01 7.37 1.02 3.74 0 0 Z " fill="#0A0553" transform="translate(1110,374)"/>
<path d="M0 0 C0.66 0.66 1.32 1.32 2 2 C1.74739753 5.78903708 -0.27849443 7.54186593 -3 10 C-2.39009109 6.44219804 -1.4216319 3.3171411 0 0 Z " fill="#0D065A" transform="translate(1098,418)"/>
<path d="M0 0 C1.9451 2.91765 2.45276317 4.62537285 3 8 C1.68 8 0.36 8 -1 8 C-0.67 5.36 -0.34 2.72 0 0 Z " fill="#0E0655" transform="translate(1141,298)"/>
<path d="M0 0 C1.9451 2.91765 2.45276317 4.62537285 3 8 C1.68 8 0.36 8 -1 8 C-0.67 5.36 -0.34 2.72 0 0 Z " fill="#0D0654" transform="translate(1133,276)"/>
<path d="M0 0 C0 0.66 0 1.32 0 2 C-0.99 2.33 -1.98 2.66 -3 3 C-3.33 3.99 -3.66 4.98 -4 6 C-5.65 5.67 -7.3 5.34 -9 5 C-2.87096774 0 -2.87096774 0 0 0 Z " fill="#0C0556" transform="translate(858,134)"/>
<path d="M0 0 C0.33 0 0.66 0 1 0 C1.28571429 7.42857143 1.28571429 7.42857143 -1 11 C-1.33 11 -1.66 11 -2 11 C-1.125 3.375 -1.125 3.375 0 0 Z " fill="#0A0354" transform="translate(298,308)"/>
<path d="M0 0 C1.65 0 3.3 0 5 0 C4.34 1.98 3.68 3.96 3 6 C2.67 5.34 2.34 4.68 2 4 C1.34 4 0.68 4 0 4 C0 2.68 0 1.36 0 0 Z " fill="#0D0753" transform="translate(1227,250)"/>
<path d="M0 0 C0 0.99 0 1.98 0 3 C-6.93 2.505 -6.93 2.505 -14 2 C-14 1.67 -14 1.34 -14 1 C-12.22932584 0.83165067 -10.45845388 0.66538091 -8.6875 0.5 C-7.70136719 0.4071875 -6.71523438 0.314375 -5.69921875 0.21875 C-3 0 -3 0 0 0 Z " fill="#0F0554" transform="translate(368,193)"/>
<path d="M0 0 C0.33 0.66 0.66 1.32 1 2 C1.66 2.33 2.32 2.66 3 3 C0.1875 4.5625 0.1875 4.5625 -3 6 C-3.99 5.67 -4.98 5.34 -6 5 C-4.68 4.67 -3.36 4.34 -2 4 C-2 3.01 -2 2.02 -2 1 C-1.34 0.67 -0.68 0.34 0 0 Z " fill="#0E0756" transform="translate(395,379)"/>
<path d="M0 0 C0.33 0.99 0.66 1.98 1 3 C-0.4375 5.1875 -0.4375 5.1875 -2 7 C-2.66 6.67 -3.32 6.34 -4 6 C-3.6875 4.125 -3.6875 4.125 -3 2 C-2.01 1.34 -1.02 0.68 0 0 Z " fill="#0D0650" transform="translate(1199,328)"/>
<path d="M0 0 C1.32 0 2.64 0 4 0 C3.34 2.31 2.68 4.62 2 7 C0 4 0 4 0 0 Z " fill="#0D074F" transform="translate(1164,408)"/>
<path d="M0 0 C0.99 0 1.98 0 3 0 C2.34 2.31 1.68 4.62 1 7 C-1 4 -1 4 -0.625 1.8125 C-0.41875 1.214375 -0.2125 0.61625 0 0 Z " fill="#0D084D" transform="translate(1181,368)"/>
<path d="M0 0 C-4.30769231 3.07692308 -4.30769231 3.07692308 -7.8125 2.6875 C-8.534375 2.460625 -9.25625 2.23375 -10 2 C-6.19832777 -0.53444815 -4.31588991 -1.33941411 0 0 Z " fill="#0C0656" transform="translate(640,201)"/>
<path d="M0 0 C0.33 0 0.66 0 1 0 C1.36923077 4.55384615 1.36923077 4.55384615 -0.5 6.8125 C-0.995 7.204375 -1.49 7.59625 -2 8 C-2.66 7.67 -3.32 7.34 -4 7 C-2.68 4.69 -1.36 2.38 0 0 Z " fill="#0C055A" transform="translate(833,152)"/>
</svg>
