<?xml version="1.0" encoding="UTF-8"?><!DOCTYPE svg PUBLIC "-//W3C//DTD SVG 1.1//EN" "http://www.w3.org/Graphics/SVG/1.1/DTD/svg11.dtd"><!-- Creator: CorelDRAW --><svg xmlns="http://www.w3.org/2000/svg" xml:space="preserve" width="494px" height="494px" version="1.1" style="shape-rendering:geometricPrecision; text-rendering:geometricPrecision; image-rendering:optimizeQuality; fill-rule:evenodd; clip-rule:evenodd"viewBox="0 0 57.65 57.65" xmlns:xlink="http://www.w3.org/1999/xlink" xmlns:xodm="http://www.corel.com/coreldraw/odm/2003"> <defs>  <style type="text/css">   <![CDATA[    .fil0 {fill:none}    .fil1 {fill:#ECF1FF}    .fil3 {fill:#B0B9DF;fill-rule:nonzero}    .fil2 {fill:#6367AC;fill-rule:nonzero}    .fil6 {fill:#13375B;fill-rule:nonzero}    .fil7 {fill:#393E7C;fill-rule:nonzero}    .fil4 {fill:#466EB6;fill-rule:nonzero}    .fil8 {fill:#F47257;fill-rule:nonzero}    .fil10 {fill:#F47458;fill-rule:nonzero}    .fil5 {fill:#F7A491;fill-rule:nonzero}    .fil9 {fill:#F8A492;fill-rule:nonzero}   ]]>  </style> </defs> <g id="Layer_x0020_1">  <metadata id="CorelCorpID_0Corel-Layer"/>  <g id="_2053152706192">   <g>    <rect class="fil0" width="57.65" height="57.65"/>   </g>   <g>    <path class="fil1" d="M7.74 36.21c-0.33,-2.32 -0.27,-4.15 -0.23,-4.87 0.15,-2.65 0.44,-7.76 4.14,-11.96 4.53,-5.15 14.74,-9.65 18.64,-4.04 5.88,17.9 31.95,-11.92 14.32,29.43 -6.14,9.95 -22.25,9.86 -29.39,4.81 -0.94,-0.67 -1.59,-1.34 -2.1,-1.87 -3.53,-3.67 -4.88,-8.11 -5.38,-11.5z"/>    <g>     <path class="fil2" d="M8.01 20.18l-0.47 0.3c-0.12,-0.12 -0.24,-0.2 -0.38,-0.25l0.62 -0.4 -0.24 -0.38 -2.13 1.36 0.27 0.43 0.42 -0.25c0.34,-0.22 0.62,-0.25 0.83,-0.12l-1.06 0.67 0.26 0.4 1.09 -0.69c0.05,0.15 0.04,0.31 -0.06,0.46 -0.24,0.37 -0.78,0.68 -0.78,0.68l0.23 0.36 2.15 0.66 0.6 -0.39c0,0 -1.56,-0.57 -2.01,-0.68 0.25,-0.21 0.42,-0.44 0.5,-0.7 0.08,-0.25 0.06,-0.51 -0.05,-0.76l0.46 -0.3 -0.25 -0.4z"/>    </g>    <path class="fil3" d="M34.28 11.55c0.01,-0.02 0.23,-0.4 0.52,-0.82 1.34,-1.93 3.33,-3.79 5.67,-3.72l0 -0.02c-1.06,-0.11 -2.09,0.17 -3,0.67 -1.49,0.8 -2.95,2.34 -3.75,3.52l0.56 0.37z"/>    <path class="fil3" d="M39.95 8.08l0.16 -1.09 -0.81 -0.75c-0.09,-0.08 -0.05,-0.24 0.08,-0.26l1.08 -0.18 0.46 -1c0.05,-0.11 0.21,-0.12 0.27,-0.01l0.51 0.98 1.09 0.12c0.13,0.02 0.18,0.17 0.09,0.26l-0.76 0.79 0.21 1.07c0.02,0.13 -0.1,0.22 -0.22,0.17l-0.98 -0.49 -0.96 0.54c-0.11,0.06 -0.24,-0.03 -0.22,-0.15z"/>    <polygon class="fil3" points="19.59,7.82 19.45,8.35 19.88,8.71 19.67,9.3 20.25,9.54 20.05,10.21 20.55,10.5 20.47,11.18 20.21,11.15 20.27,10.64 19.74,10.33 19.94,9.69 19.35,9.44 19.57,8.79 19.15,8.44 19.29,7.95 18.96,7.77 19.08,7.54 "/>    <polygon class="fil3" points="49.69,17.03 49.39,17.76 48.17,17.42 47.61,18.43 46.66,18.33 46.6,18.81 47.88,18.95 48.41,17.99 49.68,18.35 50.12,17.25 "/>    <polygon class="fil3" points="6.52,26.38 5.78,26.46 5.52,25.28 4.42,25.25 4.09,24.4 3.65,24.57 4.1,25.71 5.14,25.73 5.41,26.96 6.53,26.85 "/>    <path class="fil2" d="M25.25 7.71l0.49 -0.01c0,0 0.62,-0.47 0.64,-0.63 0.02,-0.17 -0.08,-0.52 0.02,-0.56 0.09,-0.05 0.3,-0.08 0.42,0.14 0.1,0.16 0.02,0.74 0.07,0.78 0.04,0.03 0.32,0.03 0.53,0.03 0.14,0 0.26,0.08 0.32,0.2l0 0c0.05,0.08 0.03,0.19 -0.04,0.25l-0.12 0.09 0.09 0.12c0.06,0.08 0.05,0.21 -0.04,0.27l-0.09 0.07 0.06 0.07c0.08,0.09 0.06,0.22 -0.03,0.29l-0.08 0.06 0.01 0.02c0.05,0.09 0.02,0.2 -0.06,0.26l-0.08 0.05 -1.31 0.02c-0.12,0 -0.25,-0.03 -0.36,-0.08l-0.46 -0.07c-0.05,0 -0.09,-0.05 -0.09,-0.1l0.01 -1.17c0,-0.05 0.04,-0.1 0.1,-0.1z"/>    <path class="fil2" d="M14.62 20.08c-0.01,-0.03 -0.26,-0.46 -0.58,-0.92 -1.5,-2.16 -3.72,-4.24 -6.32,-4.16l0 -0.01c1.17,-0.13 2.33,0.18 3.34,0.74 1.67,0.9 3.3,2.62 4.19,3.94l-0.63 0.41z"/>    <path class="fil2" d="M8.3 16.2l-0.18 -1.22 0.9 -0.83c0.1,-0.09 0.05,-0.27 -0.09,-0.29l-1.2 -0.21 -0.52 -1.11c-0.06,-0.13 -0.24,-0.13 -0.3,-0.01l-0.57 1.09 -1.22 0.14c-0.14,0.02 -0.2,0.19 -0.1,0.29l0.86 0.88 -0.24 1.2c-0.03,0.14 0.11,0.24 0.24,0.18l1.1 -0.54 1.07 0.6c0.12,0.07 0.27,-0.04 0.25,-0.17z"/>    <path class="fil4" d="M2.04 19.45l0.29 -0.48 -0.24 -0.51c-0.02,-0.05 0.03,-0.12 0.09,-0.1l0.54 0.12 0.41 -0.38c0.05,-0.04 0.12,-0.01 0.13,0.05l0.05 0.55 0.49 0.28c0.05,0.03 0.05,0.11 -0.01,0.13l-0.51 0.22 -0.11 0.55c-0.01,0.06 -0.09,0.09 -0.13,0.04l-0.37 -0.42 -0.55 0.07c-0.07,0 -0.11,-0.06 -0.08,-0.12z"/>    <polygon class="fil2" points="54.58,29.91 53.89,29.85 53.8,30.48 53.13,30.46 52.96,31.05 52.46,31.11 52.49,31.37 53.17,31.29 53.32,30.72 54.02,30.75 54.12,30.13 54.73,30.18 "/>    <polygon class="fil3" points="18.03,11.86 17.99,11.17 17.35,11.17 17.28,10.5 16.67,10.42 16.54,9.93 16.29,10 16.47,10.66 17.04,10.73 17.12,11.43 17.74,11.43 17.78,12.05 "/>    <polygon class="fil2" points="3.26,32 3.77,32.2 4.17,31.81 4.74,32.07 5.04,31.52 5.69,31.78 6.03,31.31 6.69,31.47 6.63,31.72 6.14,31.6 5.78,32.1 5.15,31.85 4.85,32.4 4.23,32.12 3.83,32.5 3.36,32.32 3.15,32.62 2.94,32.48 "/>    <g>     <path class="fil3" d="M49.45 10.18c0.78,0.74 0.8,1.98 0.06,2.76 -0.75,0.77 -1.98,0.8 -2.76,0.05 -0.78,-0.74 -0.81,-1.98 -0.06,-2.75 0.75,-0.78 1.98,-0.81 2.76,-0.06z"/>     <path class="fil2" d="M49.41 11.81l-0.83 0.25 -0.26 0.83c-0.02,0.07 -0.11,0.08 -0.15,0.03l-0.49 -0.72 -0.87 0.01c-0.07,0 -0.11,-0.08 -0.07,-0.13l0.52 -0.7 -0.28 -0.82c-0.02,-0.07 0.05,-0.13 0.11,-0.11l0.82 0.28 0.7 -0.51c0.06,-0.04 0.14,0 0.14,0.07l-0.02 0.87 0.71 0.5c0.06,0.04 0.04,0.13 -0.03,0.15z"/>    </g>    <path class="fil2" d="M53.53 20.42l0.46 -0.03c0.05,0 0.08,-0.07 0.05,-0.11l-0.3 -0.38 0.13 -0.48c0.01,-0.06 -0.03,-0.1 -0.08,-0.08l-0.43 0.19 -0.38 -0.27c-0.04,-0.03 -0.09,0.01 -0.09,0.06l0.03 0.5 -0.36 0.32c-0.04,0.03 -0.03,0.1 0.02,0.11l0.44 0.12 0.16 0.47c0.02,0.05 0.08,0.05 0.11,0.01l0.24 -0.43z"/>    <g>     <path class="fil5" d="M20.16 28.87c0,0 0.82,-1.58 0.94,-2.16 0.13,-0.57 0.56,-3.49 0.53,-3.68 -0.04,-0.36 -0.51,-0.59 -0.43,-0.75 0.09,-0.16 0.54,-0.21 0.69,-0.19 0.15,0.01 0.46,0.1 0.59,0.21 0.13,0.1 -0.15,3.6 -0.23,4.35 -0.09,0.75 -1.11,3.07 -1.11,3.07l-0.98 -0.85z"/>     <path class="fil6" d="M13.05 32.98c1.31,1.36 2.46,0.15 2.4,0.17 0.05,-0.02 0.33,-0.02 0.52,-0.02 0.78,-0.03 1.49,-0.59 1.8,-1.33 1.17,-0.16 1.94,-1.24 1.59,-2.17 0.52,-0.64 0.36,-1.67 -0.13,-2.33 -0.11,-1.07 -1.52,-1.26 -2.49,-0.88 -0.49,0.19 -0.91,0.61 -1.12,1.11 -0.93,-0.02 -1.73,0.66 -1.94,1.62 -1.45,0.4 -1.97,2.43 -0.63,3.83z"/>     <path class="fil5" d="M21.47 46.21c-0.14,0.73 -0.37,1.38 -0.4,1.46 -0.02,0.04 -0.17,0.17 -0.18,0.21 0.08,0.9 0.65,1.43 1.19,1.81 -0.12,-0.45 -0.38,-0.97 -0.35,-1.07 0.06,-0.16 0.26,-0.9 0.71,-1.82 -0.45,-0.05 -0.61,-0.32 -0.97,-0.59z"/>     <path class="fil7" d="M19.83 35.51l-3.11 2.12c0,0 1.51,0.98 2.03,1.48 0.52,0.49 3.3,2.74 3.34,2.85 0.04,0.09 -0.25,1.15 -0.92,4.56 0.29,0.3 0.94,0.59 1.33,0.69 0.81,-1.82 1.72,-5.6 1.62,-6.01 -0.16,-0.65 -4.29,-5.69 -4.29,-5.69z"/>     <path class="fil5" d="M11.96 39.78c0.09,0.09 0.69,1.27 0.93,1.9 0.33,-0.21 0.54,-0.46 0.92,-0.61 -0.3,-0.43 -0.88,-1.46 -0.93,-1.71 -0.11,-0.59 -0.25,-0.67 -0.25,-0.67 0,0 -1.96,0.66 -2.09,0.85 -0.13,0.18 1.05,-0.12 1.42,0.24z"/>     <path class="fil2" d="M12.9 39.49c0.15,0 -0.01,-0.69 -0.05,-0.85 -0.04,-0.18 -0.14,-0.23 -0.16,-0.24 -0.07,-0.01 -2.26,0.73 -2.62,0.99 -0.03,0.02 -0.07,0.08 -0.08,0.09 -0.2,0.38 1.6,0.45 1.85,0.28 0.23,-0.14 0.38,-0.27 1.06,-0.27z"/>     <path class="fil2" d="M20.39 36.17c0,0 -2.63,-1.03 -2.67,-0.92 -0.27,0.87 -1.12,0.59 -1.62,2.14 -0.21,0.65 -0.38,2.36 -0.52,3.62 -0.1,0.88 -0.23,1.57 -0.23,1.57 0,0 -0.61,-0.9 -1.76,-2.19 -0.09,-0.1 -1.02,0.78 -1.02,0.78 1.83,3.62 3.16,4.14 3.46,4.04 1.32,-0.45 3.07,-6.52 3.06,-6.52 0.22,-0.42 1.3,-2.52 1.3,-2.52z"/>     <path class="fil5" d="M16.33 30.03c0,0 -3.15,0 -3.82,-0.04 -0.61,-0.04 -3.02,0.03 -3.12,0.01 -0.09,-0.01 -0.72,-1.06 -0.82,-0.95 -0.11,0.11 0.35,0.52 0.21,0.63 -0.14,0.11 -1.64,-0.13 -1.62,-0.02 0.03,0.21 0.91,0.18 0.91,0.28 0,0.1 -0.92,-0.06 -0.98,0.11 -0.06,0.17 0.88,0.07 0.92,0.14 0.04,0.08 -0.88,0.21 -0.78,0.37 0.05,0.08 0.81,-0.14 0.8,-0.03 0,0.12 -0.55,0.38 -0.49,0.47 0.07,0.09 0.44,-0.28 0.76,-0.29 0.32,0 0.55,-0.17 1.06,-0.03 0.25,0.07 2.18,0.31 3.81,0.45 1.67,0.14 3.04,0.18 3.04,0.18l0.12 -1.28z"/>     <path class="fil3" d="M20.99 32.83c0.04,-0.51 -0.06,-1.47 -0.08,-1.64 0.15,-0.52 0.48,-1.64 0.59,-1.86 0,0 -0.54,-1.05 -1.1,-1.04 0,0 -0.58,1.29 -1.02,1.52 0,0 -0.16,0.06 -0.22,0.06 -0.43,0 -1.92,-0.04 -2.2,-0.05l0.16 2.12c0.59,1.56 0.48,2.94 0.37,3.42 -0.05,0.27 2.54,1.07 2.94,0.81 0.01,-0.01 0.48,-2.32 0.56,-3.34z"/>     <path class="fil3" d="M17.72 29.9c-0.28,-0.13 -2.27,-0.07 -2.27,-0.07 0,0 -0.28,1.39 -0.05,1.73 0,0 1.78,0.26 1.73,0.41l0.59 -2.07z"/>     <path class="fil5" d="M18.07 28.93c0,0 0.2,0.73 0.24,1.04 0.04,0.32 0.52,1.3 1.17,1.16 0.65,-0.14 -0.03,-1.06 -0.15,-1.35 -0.13,-0.28 -0.48,-1.45 -0.48,-1.45l-0.78 0.6z"/>     <path class="fil8" d="M19 28.81c-0.09,-0.27 -0.15,-0.48 -0.15,-0.48l-0.78 0.6c0,0 0.03,0.13 0.08,0.31 0.42,0.06 0.7,-0.14 0.85,-0.43z"/>     <path class="fil5" d="M17.5 26.75c0,0 -0.35,0.19 -0.47,0.61 -0.12,0.42 0.04,1.49 0.94,1.73 0.89,0.25 1.27,-0.61 1.07,-1.27 -0.19,-0.66 -0.6,-1.49 -1.54,-1.07z"/>     <path class="fil5" d="M19.15 27.56c-0.01,0.18 -0.11,0.32 -0.21,0.31 -0.11,-0.01 -0.18,-0.16 -0.16,-0.34 0.01,-0.17 0.11,-0.31 0.21,-0.3 0.11,0 0.18,0.16 0.16,0.33z"/>     <path class="fil2" d="M21.06 47.69c-0.06,-0.14 -0.63,0.31 -0.76,0.4 -0.15,0.11 -0.16,0.22 -0.16,0.25 0.01,0.07 1.46,1.85 1.88,2.1 0.04,0.02 0.12,0.02 0.15,0.01 0.23,-0.09 -0.15,-1.55 -0.46,-1.84 -0.2,-0.18 -0.4,-0.28 -0.65,-0.92z"/>     <path class="fil6" d="M17.6 26.69c0,0 -0.14,1.2 -0.53,1.42 -0.38,0.22 -0.21,0.75 -0.21,0.75 0,0 -0.37,-1.23 -0.07,-1.63 0.3,-0.4 0.81,-0.54 0.81,-0.54z"/>     <path class="fil5" d="M17.3 28.28c0.11,0.15 0.11,0.34 0.01,0.41 -0.1,0.07 -0.28,0 -0.38,-0.15 -0.11,-0.15 -0.11,-0.34 -0.01,-0.41 0.11,-0.07 0.28,-0.01 0.38,0.15z"/>     <path class="fil5" d="M21.76 22.58l0 -0.21c-0.16,-0.06 -0.35,-0.04 -0.44,-0.07l-0.22 -0.16c-0.05,-0.02 -0.12,0.03 -0.12,0.08 0,0.05 0.07,0.15 0.1,0.18 0,0 0.4,0.33 0.54,0.43 0.07,0.05 0.29,0.18 0.29,0.18l0.13 -0.24 -0.28 -0.19z"/>    </g>    <g>     <path class="fil3" d="M6.29 35.5l-0.22 0.32c-0.11,-0.05 -0.21,-0.07 -0.31,-0.06l0.29 -0.42 -0.25 -0.18 -1.02 1.44 0.29 0.2 0.21 -0.27c0.16,-0.23 0.33,-0.33 0.5,-0.3l-0.51 0.71 0.28 0.2 0.52 -0.74c0.07,0.09 0.11,0.19 0.08,0.31 -0.06,0.31 -0.32,0.65 -0.32,0.65l0.24 0.17 1.56 -0.15 0.29 -0.4c0,0 -1.16,0.04 -1.48,0.09 0.11,-0.2 0.15,-0.4 0.14,-0.58 -0.02,-0.19 -0.1,-0.35 -0.24,-0.48l0.22 -0.32 -0.27 -0.19z"/>    </g>    <g>     <path class="fil2" d="M53.09 36.63l-0.15 -0.63c0.17,-0.08 0.31,-0.19 0.42,-0.32l0.2 0.84 0.51 -0.13 -0.68 -2.86 -0.59 0.14 0.12 0.56c0.11,0.45 0.04,0.77 -0.18,0.95l-0.34 -1.42 -0.54 0.13 0.35 1.47c-0.19,-0.01 -0.36,-0.08 -0.49,-0.24 -0.32,-0.41 -0.45,-1.12 -0.45,-1.12l-0.49 0.11 -1.54 2.12 0.2 0.82c0,0 1.22,-1.51 1.52,-1.97 0.13,0.36 0.32,0.64 0.57,0.82 0.25,0.18 0.54,0.26 0.87,0.24l0.14 0.62 0.55 -0.13z"/>    </g>    <g>     <path class="fil3" d="M55.28 25.25l-0.42 -0.22c0.04,-0.14 0.05,-0.26 0.03,-0.39l0.55 0.3 0.18 -0.34 -1.88 -1 -0.2 0.38 0.36 0.2c0.3,0.16 0.44,0.35 0.43,0.56l-0.93 -0.5 -0.19 0.35 0.96 0.52c-0.09,0.1 -0.22,0.16 -0.36,0.15 -0.38,-0.03 -0.82,-0.3 -0.82,-0.3l-0.18 0.32 0.41 1.85 0.53 0.28c0,0 -0.23,-1.38 -0.33,-1.76 0.26,0.1 0.5,0.13 0.72,0.09 0.22,-0.05 0.4,-0.17 0.54,-0.36l0.41 0.22 0.19 -0.35z"/>    </g>    <path class="fil7" d="M38.62 15.7l-1.69 0 0 -0.34c0,-0.29 -0.02,-0.47 -0.05,-0.55 -0.04,-0.08 -0.12,-0.12 -0.25,-0.12 -0.11,0 -0.19,0.04 -0.24,0.11 -0.06,0.07 -0.08,0.18 -0.08,0.32 0,0.19 0.01,0.33 0.04,0.42 0.02,0.09 0.1,0.19 0.24,0.3 0.13,0.11 0.41,0.26 0.82,0.47 0.56,0.27 0.92,0.53 1.09,0.77 0.18,0.24 0.26,0.59 0.26,1.05 0,0.51 -0.06,0.9 -0.2,1.16 -0.13,0.26 -0.35,0.46 -0.66,0.6 -0.31,0.14 -0.69,0.21 -1.13,0.21 -0.48,0 -0.9,-0.07 -1.25,-0.23 -0.34,-0.15 -0.58,-0.35 -0.71,-0.61 -0.13,-0.26 -0.19,-0.65 -0.19,-1.18l0 -0.3 1.7 0 0 0.4c0,0.33 0.02,0.55 0.06,0.65 0.04,0.1 0.13,0.15 0.25,0.15 0.14,0 0.23,-0.03 0.28,-0.1 0.06,-0.07 0.09,-0.21 0.09,-0.43 0,-0.3 -0.04,-0.49 -0.11,-0.56 -0.07,-0.08 -0.44,-0.3 -1.11,-0.68 -0.56,-0.31 -0.91,-0.6 -1.03,-0.86 -0.12,-0.26 -0.18,-0.56 -0.18,-0.92 0,-0.5 0.06,-0.87 0.2,-1.11 0.13,-0.24 0.35,-0.42 0.67,-0.55 0.32,-0.13 0.69,-0.2 1.11,-0.2 0.41,0 0.77,0.06 1.06,0.16 0.29,0.11 0.52,0.25 0.67,0.42 0.16,0.18 0.26,0.34 0.29,0.49 0.03,0.15 0.05,0.38 0.05,0.7l0 0.36z"/>    <path id="_1" class="fil7" d="M41.29 12.86l0 0.99 0.53 0 0 1 -0.53 0 0 3.36c0,0.41 0.02,0.65 0.06,0.69 0.05,0.05 0.23,0.07 0.55,0.07l0 1.01 -0.78 0c-0.44,0 -0.75,-0.01 -0.94,-0.05 -0.18,-0.04 -0.35,-0.12 -0.49,-0.25 -0.14,-0.13 -0.23,-0.28 -0.27,-0.45 -0.03,-0.17 -0.05,-0.57 -0.05,-1.19l0 -3.19 -0.41 0 0 -1 0.41 0 0 -0.99 1.92 0z"/>    <g>     <path class="fil5" d="M40.75 45.13c0,0 1.13,0.81 1.3,1.05 0.26,0.35 -1.9,1 -1.66,0.59 0.05,-0.09 0.21,-0.41 0.21,-0.44 0.04,-0.17 -0.42,-0.61 -0.42,-0.61l0.57 -0.59z"/>     <path class="fil2" d="M39.8 47.45l0.77 -1.08c0,0 0.47,-0.11 0.96,-0.66 0,0 0.44,0.17 0.71,0.53 0,0 -0.51,0.55 -1.3,1.17 0,0 -0.46,0.42 -1.11,0.63 -0.64,0.22 -0.03,-0.59 -0.03,-0.59z"/>     <path class="fil9" d="M49.93 25.14c0,0 -0.29,0.48 -0.32,0.45 -0.03,-0.02 0.14,-0.27 0.27,-0.58 0.03,-0.08 0.06,-0.16 0.09,-0.23 0.07,-0.19 -0.02,-0.28 -0.13,-0.1 -0.03,0.07 -0.09,0.18 -0.13,0.26 -0.03,0.09 -0.09,0.16 -0.13,0.24 -0.08,0.14 -0.14,0.25 -0.14,0.24 -0.01,-0.01 -0.04,0.01 -0.01,-0.08 0.03,-0.1 0.16,-0.3 0.2,-0.45 0.03,-0.09 0.09,-0.27 0.09,-0.27 0,0 0.05,-0.28 0.03,-0.29 -0.08,-0.04 -0.17,0.14 -0.19,0.27 -0.05,0.07 -0.11,0.26 -0.11,0.26 0,0 -0.2,0.36 -0.25,0.33 -0.02,-0.01 0.08,-0.25 0.14,-0.49 0.06,-0.23 0.09,-0.47 0.04,-0.49 -0.07,-0.03 -0.16,0.22 -0.16,0.22 0,0 -0.06,0.17 -0.08,0.23 -0.03,0.07 -0.12,0.26 -0.12,0.26 0,0 -0.37,0.66 -0.42,0.63 -0.04,-0.03 -0.11,-0.16 -0.1,-0.2 0.01,-0.05 0.07,-0.13 0.08,-0.18 0,-0.05 -0.02,-0.12 -0.08,-0.14 -0.06,-0.01 -0.19,0.21 -0.19,0.21 0,0 -0.1,0.18 -0.11,0.32 -0.01,0.5 0.08,0.48 0.07,0.54 0,0.08 -0.58,0.91 -0.58,0.91 0,0 0,0 -0.01,0.01l0.69 0.5c0.22,-0.37 0.4,-0.66 0.45,-0.75 0,0 0.35,-0.3 0.56,-0.49 0.2,-0.19 0.32,-0.46 0.37,-0.53 0.01,-0.01 0.17,-0.22 0.3,-0.55 0.1,-0.27 -0.12,-0.06 -0.12,-0.06z"/>     <path class="fil2" d="M42.47 36.8l-0.18 0.88 -4.46 4.06 3.19 3.24 -0.86 0.88c0,0 -4.72,-3.47 -4.89,-3.92 -0.26,-0.7 3.38,-5.34 3.38,-5.34l3.82 0.2z"/>     <path class="fil5" d="M45.76 47.56c0,0 1.13,0.81 1.3,1.05 0.26,0.35 -1.9,1 -1.67,0.59 0.06,-0.09 0.21,-0.41 0.22,-0.44 0.04,-0.17 -0.42,-0.61 -0.42,-0.61l0.57 -0.59z"/>     <path class="fil2" d="M44.81 49.89l0.76 -1.08c0,0 0.51,-0.09 1,-0.64 0,0 0.41,0.14 0.68,0.51 0,0 -0.51,0.55 -1.3,1.17 0,0 -0.47,0.41 -1.11,0.63 -0.65,0.22 -0.03,-0.59 -0.03,-0.59z"/>     <path class="fil7" d="M42.32 37.21l0.07 5.77 3.55 4.46 -0.84 0.92c0,0 -4.39,-3.65 -4.87,-4.7 -0.3,-0.65 -1.39,-6.8 -1.39,-6.8l3.48 0.35z"/>     <path class="fil3" d="M38.72 36.75c0.36,-0.82 0.32,-6.7 1.73,-8.07 0.5,0.08 0.85,0.13 0.94,0.15 0.07,0.6 0.15,2.83 0.2,4.86 0.03,1.36 0,2.78 0.17,3.53 0.1,0.47 -3.38,0.28 -3.04,-0.47z"/>     <path class="fil5" d="M32.73 32.05c-0.83,0.05 -1.18,0.18 -1.43,0.13 -0.26,-0.05 -0.93,-0.29 -0.92,-0.55 0.91,-0.18 2.49,0.1 2.49,0.1 -0.11,0.53 -0.14,0.32 -0.14,0.32z"/>     <path class="fil4" d="M39.85 28.86c0,0 -0.37,1.81 -0.8,2.12 -0.42,0.31 -2.59,1.39 -2.72,1.39 -0.66,-0.04 -3.79,-0.17 -3.79,-0.17l0.09 -1 3.54 -0.29c0,0 2.55,-1.68 2.9,-1.94 0.24,-0.15 0.78,-0.11 0.78,-0.11z"/>     <path class="fil4" d="M38.57 37.15c-0.31,0 -0.43,-0.05 -0.64,-0.11 0,0 -0.14,-2.36 0.53,-5.86 0.26,-1.32 0.27,-2.12 0.79,-2.32 0.47,-0.19 1.04,-0.21 1.2,-0.18 -1.38,3.92 -1.39,6.93 -1.59,7.81 -0.09,0.44 -0.18,0.66 -0.29,0.66z"/>     <path class="fil5" d="M40.6 28.08l-0.15 0.6c0,0 -0.03,0.51 0.21,0.56 0.29,0.05 0.72,-0.38 0.72,-0.38l0.24 -1.67 -1.02 0.89z"/>     <path class="fil5" d="M40.6 28.08l-0.15 0.6c0,0 -0.03,0.51 0.21,0.56 0.29,0.05 0.72,-0.38 0.72,-0.38l0.24 -1.67 -1.02 0.89z"/>     <path class="fil10" d="M41.62 27.2l-1.02 0.88 -0.11 0.45c0.39,-0.1 0.95,-0.53 1.13,-1.33z"/>     <path class="fil5" d="M40.59 25.66c-0.24,0 -0.47,0.17 -0.55,0.42 -0.08,0.21 -0.17,0.51 -0.23,0.86 -0.11,0.64 0.26,1.23 0.58,1.28 0.32,0.04 1.07,-0.17 1.24,-1.08 0.07,-0.39 0.17,-0.9 -0.15,-1.17 -0.25,-0.21 -0.6,-0.31 -0.89,-0.31z"/>     <path class="fil6" d="M41.53 27.84c0,0 1.12,-1 1.17,-1.79 0.05,-0.78 -0.67,-1.19 -1.29,-1.22 -0.28,-0.01 -0.47,0.01 -0.75,0.04 -0.62,0.08 -1.02,0.35 -0.88,0.86 0.19,0.68 1.47,0.11 1.73,0.32 0.22,0.17 -0.13,0.59 0.08,0.75 0.2,0.15 0.09,0.1 0.03,0.39 -0.07,0.28 -0.09,0.65 -0.09,0.65z"/>     <path class="fil5" d="M41.96 26.93c-0.03,0.19 -0.14,0.33 -0.25,0.31 -0.12,-0.02 -0.19,-0.18 -0.16,-0.37 0.03,-0.19 0.14,-0.33 0.26,-0.31 0.11,0.02 0.18,0.18 0.15,0.37z"/>     <path class="fil4" d="M48.68 27.24l-0.77 -0.76c0,0 -1.45,2.09 -2.18,2.45 -0.72,0.35 -3.1,0.22 -3.19,0.2 -0.28,-0.06 -1.16,-0.3 -1.16,-0.3 0,0 -0.74,6.32 0.22,8.52 0.32,0.71 2.26,0.24 2.26,0.24 0,0 -0.6,-2.63 -0.63,-2.98 -0.03,-0.33 -0.2,-2.94 -0.17,-2.97 0.07,-0.07 2.73,-0.64 3.45,-1.2 0.77,-0.58 2.17,-3.2 2.17,-3.2z"/>    </g>    <path class="fil7" d="M33.05 11.12l0 34.71 -8.64 0 0 -18.63c0,-2.69 -0.07,-4.32 -0.19,-4.86 -0.13,-0.54 -0.49,-0.96 -1.06,-1.23 -0.58,-0.28 -1.87,-0.42 -3.87,-0.42l-0.85 0 0 -4.03c4.18,-0.89 7.36,-2.74 9.52,-5.54l5.09 0z"/>    <g>     <path class="fil2" d="M30.34 41.46c0.52,-0.66 1.69,-1.62 1.94,-1.82 0.23,0.23 0.57,0.91 0.61,1.22 -0.32,0.06 -1.73,0.5 -2.55,0.6zm1.93 -2.21c-0.39,0.08 -1.95,2.17 -1.95,2.17l-0.05 0.14c0,0 2.82,-0.31 2.92,-0.43 0.28,-0.33 -0.6,-1.94 -0.92,-1.88z"/>     <g>      <path class="fil2" d="M27.12 40.78c-0.17,-0.17 0.25,-0.87 0.45,-1.02 0.04,-0.03 2.01,1.22 2.29,1.65 -1.1,-0.12 -2.58,-0.48 -2.74,-0.63zm1.37 -1.17c-0.77,-0.5 -0.98,-0.5 -1.2,-0.37 -0.22,0.12 -1.05,1.31 -0.68,1.68 0.37,0.36 3.29,0.63 3.29,0.63l0.07 -0.18c0,0 -0.71,-1.26 -1.48,-1.76z"/>      <path class="fil2" d="M29.93 42.1l0.16 0c0.16,0 0.3,-0.13 0.3,-0.29l0 -0.49c0,-0.16 -0.14,-0.29 -0.3,-0.29l-0.16 0c-0.17,0 -0.3,0.13 -0.3,0.29l0 0.49c0,0.16 0.13,0.29 0.3,0.29z"/>     </g>     <path class="fil2" d="M36.16 41.57l-13.37 -0.04c-0.36,0 -0.63,0.31 -0.58,0.67l0.21 1.36 0.67 0 0.4 6.87c0.02,0.37 0.33,0.65 0.7,0.65l10.67 0 0.45 -7.55 0.63 0 0.22 -1.96z"/>     <path class="fil3" d="M35.09 51.08l-8.19 0 -0.44 -9.37 9.73 0 -0.41 8.72c-0.01,0.37 -0.32,0.65 -0.69,0.65z"/>     <path class="fil3" d="M36.6 43.54l-10.57 0.03 -0.24 -2.04 10.35 0.04c0.34,0 0.6,0.3 0.57,0.63l-0.11 1.34z"/>     <polygon class="fil2" points="26.03,43.57 36.11,43.54 26.35,44.07 "/>     <polygon class="fil2" points="30.27,43.56 29.99,43.56 29.99,41.55 30.27,41.55 "/>     <polygon class="fil2" points="31.16,51.1 30.81,51.1 30.81,43.55 31.16,43.55 "/>    </g>   </g>  </g> </g></svg>